<svg xmlns="http://www.w3.org/2000/svg" viewBox="0 0 500 500"><g id="freepik--background-complete--inject-4"><path d="M466.9,267.88s-7.76-6-19.08,12.81-15.89,29.74-15.89,29.74-2.92,3.9-5.53,1-5.91-10.71-10.78-9.69c-5,1.06-7.07,6.46-6.7,14.64s.5,26.11.51,27.74-1.07,3.86-3.16,2.19-13.76-16.68-20.55-10.72-2,28.57-1.56,31.05-.08,3.48-1.28,4-4.64-4.89-8.13-9-8.27-8.32-11.9-4.55-5.88,20.31,8,48.45l7.29,12.61,14.63.23C424.13,417,437.53,407,439.08,402s-4.42-7.16-9.73-8.23-11.71-1.46-11.83-2.76.49-2.27,2.89-3.06,24.5-7.53,26.44-16.35S430,359.83,427.54,358.8s-1-3.06.4-3.83,17.2-9.31,24.53-12.94,11.09-8,9.59-12.94c-1.46-4.75-9.92-3.86-13.69-4.76S446.6,319,446.6,319,454,309.7,465,290.72s1.76-23,1.76-23" style="fill:#ebebeb"></path><path d="M456.73,284.68a4.28,4.28,0,0,1-.21.4c-.15.29-.37.68-.65,1.18l-2.56,4.51c-2.23,3.91-5.5,9.55-9.56,16.51-8.12,13.9-19.49,33-32.12,54.1s-24.06,40.17-32.25,54c-4.08,6.93-7.38,12.54-9.68,16.43l-2.63,4.47-.7,1.15a3.9,3.9,0,0,1-.25.39l.21-.41.66-1.18c.6-1,1.46-2.56,2.56-4.5,2.23-3.92,5.5-9.56,9.56-16.51,8.12-13.91,19.49-33,32.13-54.11s24.05-40.16,32.23-54c4.08-6.92,7.39-12.53,9.68-16.43l2.64-4.46c.3-.5.53-.88.69-1.16S456.73,284.68,456.73,284.68Z" style="fill:#e0e0e0"></path><path d="M419.8,312.93a4.71,4.71,0,0,1,.29,1c.17.66.38,1.62.63,2.8.49,2.37,1.09,5.66,1.68,9.31s1.09,6.84,1.48,9.33c.19,1.12.34,2.06.47,2.82a5,5,0,0,1,.13,1.05,4.31,4.31,0,0,1-.3-1c-.17-.66-.38-1.62-.61-2.8-.47-2.38-1-5.68-1.62-9.32s-1.14-6.84-1.55-9.32l-.48-2.82A4.5,4.5,0,0,1,419.8,312.93Z" style="fill:#e0e0e0"></path><path d="M425.8,339.6c0-.12,6.7-1.65,15-3.41s15.1-3.1,15.13-3-6.71,1.65-15,3.41S425.82,339.72,425.8,339.6Z" style="fill:#e0e0e0"></path><path d="M404.94,371.09a5.79,5.79,0,0,1,1.07,0l2.92.22c2.46.18,5.86.42,9.62.54s7.17.13,9.64.11l2.92,0a5.43,5.43,0,0,1,1.08,0,4.73,4.73,0,0,1-1.07.13c-.69.06-1.69.12-2.92.17-2.47.1-5.89.15-9.66,0s-7.18-.41-9.64-.67c-1.23-.14-2.22-.26-2.91-.36A3.86,3.86,0,0,1,404.94,371.09Z" style="fill:#e0e0e0"></path><path d="M394.2,348.16a4.06,4.06,0,0,1,.51.86l1.24,2.4c1,2,2.43,4.86,3.95,8s2.86,6,3.82,8.05l1.11,2.47a4.4,4.4,0,0,1,.36.93,4.31,4.31,0,0,1-.52-.86c-.33-.65-.75-1.45-1.24-2.4-1-2-2.42-4.86-3.94-8s-2.87-6-3.83-8.05c-.43-1-.81-1.8-1.11-2.47A4,4,0,0,1,394.2,348.16Z" style="fill:#e0e0e0"></path><path d="M372.25,373.63a5.82,5.82,0,0,1,.65,1.1c.41.8,1,1.83,1.6,3.07,1.33,2.6,3.15,6.21,5.13,10.21s3.76,7.63,5,10.27c.6,1.26,1.09,2.31,1.47,3.13a6.81,6.81,0,0,1,.49,1.18,6.49,6.49,0,0,1-.64-1.1l-1.61-3.07c-1.33-2.6-3.15-6.21-5.13-10.21s-3.76-7.63-5-10.27l-1.47-3.14A7,7,0,0,1,372.25,373.63Z" style="fill:#e0e0e0"></path><path d="M386.46,401.8a8,8,0,0,1,1.37,0l3.7.14c3.13.12,7.45.27,12.23.29s9.1-.05,12.23-.13l3.71-.09a8.6,8.6,0,0,1,1.37,0,7.63,7.63,0,0,1-1.36.16c-.87.07-2.14.16-3.7.24-3.13.16-7.47.3-12.25.27s-9.12-.23-12.24-.43c-1.57-.1-2.83-.2-3.71-.28A8.6,8.6,0,0,1,386.46,401.8Z" style="fill:#e0e0e0"></path><rect x="365.06" y="215.3" width="77.73" height="52.39" transform="translate(-53.91 132.59) rotate(-17.49)" style="fill:#fff"></rect><path d="M448.87,254.8s-.11-.31-.31-.91-.49-1.49-.86-2.64c-.74-2.32-1.83-5.71-3.22-10.05-2.76-8.68-6.73-21.13-11.56-36.31l.26.14-74.11,23.41h0l.17-.33c5.61,17.81,10.94,34.75,15.73,50l-.3-.16,53.42-16.71,15.29-4.75,4.07-1.26,1.06-.32.37-.1-.34.12-1,.34-4,1.29-15.2,4.86-53.49,17-.23.07-.07-.23c-4.81-15.22-10.15-32.15-15.77-50l-.08-.25.25-.08h0l74.15-23.32.2-.06.06.2c4.76,15.25,8.67,27.77,11.39,36.5,1.34,4.33,2.39,7.71,3.1,10,.35,1.14.62,2,.8,2.62S448.87,254.8,448.87,254.8Z" style="fill:#e0e0e0"></path><path d="M433.12,204.83s0,.08-.1.23l-.34.64-1.36,2.45c-1.21,2.16-2.94,5.22-5.07,9-4.36,7.62-10.37,18.11-17.06,29.81l-.11.19-.21-.08-2.29-.85-33.69-12.64-10.19-3.88-2.76-1.08-.72-.3a.86.86,0,0,1-.24-.11.82.82,0,0,1,.26.06l.73.25,2.8,1L373,233.23l33.75,12.49,2.29.86-.31.11c6.74-11.67,12.8-22.13,17.19-29.73,2.2-3.74,4-6.77,5.22-8.91l1.44-2.4c.16-.25.28-.45.38-.62A1.18,1.18,0,0,1,433.12,204.83Z" style="fill:#e0e0e0"></path><path d="M148.1,90.11a8.36,8.36,0,0,1-.23-2,14.43,14.43,0,0,0-.26-2.35,21.31,21.31,0,0,0-.62-3.16,29.45,29.45,0,0,0-3.28-8.14,30.25,30.25,0,0,0-36-13.6A28.38,28.38,0,0,0,100,64.82a27.63,27.63,0,0,0-6.49,6.23,29.91,29.91,0,0,0-.86,35.45,35.26,35.26,0,0,0,2.85,3.56,34.6,34.6,0,0,0,3.33,3,28.25,28.25,0,0,0,7.49,4.29A30.37,30.37,0,0,0,143,105.49a29.74,29.74,0,0,0,3.67-8,23.55,23.55,0,0,0,.77-3.13,16.44,16.44,0,0,0,.38-2.34,8.44,8.44,0,0,1,.32-2,8.79,8.79,0,0,1,0,2,14.36,14.36,0,0,1-.22,2.39,21.31,21.31,0,0,1-.63,3.22,29,29,0,0,1-3.51,8.3,31.27,31.27,0,0,1-21.42,14.47,31.4,31.4,0,0,1-16.55-1.69,29.67,29.67,0,0,1-7.92-4.46,35.66,35.66,0,0,1-3.52-3.13,35.5,35.5,0,0,1-3-3.74A31.44,31.44,0,0,1,92.24,70a29,29,0,0,1,6.87-6.53,29.63,29.63,0,0,1,8.12-4.08,31.49,31.49,0,0,1,16.61-.88A31.25,31.25,0,0,1,144.53,74a29,29,0,0,1,3.11,8.46,20.84,20.84,0,0,1,.47,3.25,14,14,0,0,1,.11,2.4A9.06,9.06,0,0,1,148.1,90.11Z" style="fill:#e0e0e0"></path><path d="M141.93,70.85c.07.1-.49.58-1.56,1.38l-2,1.42c-.39.27-.8.58-1.26.86l-1.52.8a34.85,34.85,0,0,1-18.12,4.56l-2.74-.12-2.64-.41c-.43-.08-.86-.13-1.28-.22l-1.23-.33c-.8-.22-1.61-.41-2.37-.65a40.24,40.24,0,0,1-7.69-3.55c-4.13-2.5-6.14-4.77-6-4.91s2.41,1.71,6.57,3.87a46.94,46.94,0,0,0,7.57,3.1c.74.21,1.51.37,2.29.57l1.18.3,1.22.18,2.52.37,2.62.11a37.58,37.58,0,0,0,17.55-4l1.53-.66c.47-.25.89-.51,1.3-.73L140,71.68C141.18,71.06,141.86,70.76,141.93,70.85Z" style="fill:#e0e0e0"></path><path d="M92.61,108.33c-.07-.09.49-.57,1.56-1.37l2-1.43c.4-.27.81-.57,1.27-.86l1.51-.79a34.82,34.82,0,0,1,18.13-4.56l2.74.12,2.64.41c.43.07.86.13,1.28.21l1.22.33c.81.23,1.61.42,2.37.66a39.69,39.69,0,0,1,7.69,3.54c4.14,2.5,6.15,4.77,6,4.92s-2.41-1.71-6.57-3.87a46,46,0,0,0-7.57-3.1c-.74-.21-1.51-.38-2.29-.58l-1.18-.29-1.23-.18-2.51-.37L117,101A37.59,37.59,0,0,0,99.47,105l-1.53.67c-.47.24-.9.5-1.3.73l-2.11,1.16C93.36,108.13,92.68,108.43,92.61,108.33Z" style="fill:#e0e0e0"></path><path d="M148.08,90.83c0,.47-13.82.51-30.84.1s-30.82-1.13-30.8-1.6,13.81-.51,30.84-.1S148.09,90.36,148.08,90.83Z" style="fill:#e0e0e0"></path><path d="M115.84,120.16c-.47,0-.52-13.82-.1-30.83s1.12-30.81,1.59-30.8.51,13.82.1,30.84S116.3,120.17,115.84,120.16Z" style="fill:#e0e0e0"></path><path d="M115.84,120.11c-.12.18-3.52-2.12-7.44-7.34a41.37,41.37,0,0,1-5.5-10A37,37,0,0,1,100.51,89a35.38,35.38,0,0,1,3.11-13.68,43.09,43.09,0,0,1,6-9.69c4.15-5,7.58-7.24,7.69-7.06s-2.93,2.71-6.74,7.8a45.83,45.83,0,0,0-5.53,9.57A35.53,35.53,0,0,0,102.2,89a37.73,37.73,0,0,0,2.16,13.24,44.69,44.69,0,0,0,5,9.85C113,117.34,116,119.92,115.84,120.11Z" style="fill:#e0e0e0"></path><path d="M118,58.54c.12-.18,3.52,2.13,7.44,7.34a41.71,41.71,0,0,1,5.51,10,37.3,37.3,0,0,1,2.38,13.82,35.38,35.38,0,0,1-3.11,13.67,43,43,0,0,1-6,9.7c-4.15,5-7.58,7.24-7.69,7.06s2.93-2.72,6.74-7.8a46.11,46.11,0,0,0,5.54-9.58,35.69,35.69,0,0,0,2.85-13.09,37.73,37.73,0,0,0-2.16-13.24,44.91,44.91,0,0,0-5-9.85C120.91,61.32,117.85,58.73,118,58.54Z" style="fill:#e0e0e0"></path><path d="M310.25,91a3.8,3.8,0,0,0,1.53-1.26,3.6,3.6,0,0,0,.59-2.29A5.7,5.7,0,0,0,312,86l-.6-1.69L304.16,64c-.75-2.13-1.54-4.37-2.37-6.7-.41-1.17-.83-2.36-1.25-3.57a11.13,11.13,0,0,0-.7-1.76,3.26,3.26,0,0,0-1.34-1.21,3,3,0,0,0-1.81-.26,17.43,17.43,0,0,0-1.89.63l-3.93,1.45-8.22,3L246,69.06a3.2,3.2,0,0,0-1.91,3.82c.56,1.6,1.11,3.2,1.66,4.78q1.66,4.77,3.28,9.4l6.19,17.76c.25.71.5,1.41.74,2.11a3.36,3.36,0,0,0,1.12,1.67,3.09,3.09,0,0,0,1.84.66,5.46,5.46,0,0,0,2-.5l7.76-2.83,13.94-5.06,20.2-7.28,5.5-2,1.44-.49a3,3,0,0,1,.5-.15,3.81,3.81,0,0,1-.48.21l-1.41.55-5.46,2.06-20.13,7.48-13.92,5.13-7.75,2.85-1,.37a3.46,3.46,0,0,1-1.15.18,3.72,3.72,0,0,1-2.19-.78,3.94,3.94,0,0,1-1.31-1.93c-.25-.7-.49-1.4-.74-2.11l-6.23-17.75q-1.62-4.62-3.29-9.39L243.51,73a3.83,3.83,0,0,1,2.3-4.58l36.63-13.38,8.23-3,3.95-1.44a14.06,14.06,0,0,1,2-.65,3.59,3.59,0,0,1,2.12.31,3.74,3.74,0,0,1,1.55,1.42,10.9,10.9,0,0,1,.74,1.86c.42,1.21.83,2.4,1.24,3.57q1.22,3.51,2.33,6.73l7,20.3c.21.6.4,1.16.58,1.7a5.62,5.62,0,0,1,.39,1.54,3.59,3.59,0,0,1-.66,2.38,3.25,3.25,0,0,1-1.16,1A1.92,1.92,0,0,1,310.25,91Z" style="fill:#e0e0e0"></path><polygon points="278.95 75.67 287.25 77.31 281.8 83.92 276.35 90.52 273.5 82.28 270.65 74.04 278.95 75.67" style="fill:#e0e0e0"></polygon></g><g id="freepik--Newspaper--inject-4"><path d="M149.5,108.82s4.09,105.35,4.86,171.29C155.09,343.19,134,413.28,137,435.35l253.57,13s-11.79-163-7.29-214.5c4.3-49.1,4.27-130.54,4.27-130.54Z" style="fill:#e0e0e0"></path><path d="M139.49,105.4s4.19,105.35,5,171.29c.75,63.08-10.51,139.53-7.42,161.6l245.63-8.52s-8.95-147.8-4.35-199.28c4.38-49.1,4.33-129.64,4.33-129.64Z" style="fill:#ebebeb"></path><path d="M136.29,105.41s-6.18,116-5.38,181.94c.77,63.07,3,128.87,6.15,150.94L376,440.42s-9.21-147.8-4.49-199.28C376,192,376,104.66,376,104.66Z" style="fill:#fafafa"></path><path d="M376.53,440.92l-239.9-2.13-.07-.43c-3.47-24.09-5.48-96.4-6.15-151-.8-65.2,5.32-180.8,5.38-182l0-.47,240.69-.76v.5c0,.87,0,88-4.49,136.53-4.67,50.85,4.4,197.72,4.49,199.2Zm-239-3.13,238,2.12c-.6-9.84-9-149.44-4.45-198.82,4.28-46.59,4.47-128.72,4.48-135.93l-238.74.75c-.43,8.17-6.12,118.38-5.35,181.43C132.08,341.6,134.07,413.34,137.49,437.79Z" style="fill:#263238"></path><rect x="152.41" y="174.21" width="98.34" height="95.15" style="fill:#FF0100"></rect><g style="opacity:0.30000000000000004"><polygon points="160.03 261.21 187.24 212.25 209.49 243.55 223.01 226.93 243.13 261.21 160.03 261.21"></polygon></g><g style="opacity:0.30000000000000004"><path d="M219,202.73a7.08,7.08,0,1,1-7.08-7.08A7.08,7.08,0,0,1,219,202.73Z"></path></g><g style="opacity:0.30000000000000004"><path d="M243.13,261.48a2.19,2.19,0,0,1,0-.39c0-.29,0-.65,0-1.11,0-1,0-2.44,0-4.28,0-3.78-.06-9.23-.11-16.16-.05-13.9-.12-33.69-.2-57.45l.4.4-83.09.07.46-.46v21.36c0,7,0,13.84,0,20.5,0,13.33,0,25.93-.05,37.52l-.41-.41,60.08.21,16.95.1,4.49.05,1.17,0,.41,0-.37,0-1.12,0-4.41.05-16.86.11-60.34.21h-.4v-.41c0-11.59,0-24.19,0-37.52,0-6.66,0-13.51,0-20.5V182.1c-.42.41.56-.58.47-.48l83.09.07h.4v.4c-.09,23.87-.16,43.74-.21,57.7,0,6.89-.08,12.32-.1,16.07,0,1.81,0,3.21-.05,4.21,0,.44,0,.79,0,1.06A2.21,2.21,0,0,1,243.13,261.48Z"></path></g><rect x="276.19" y="356.41" width="67.61" height="65.41" style="fill:#FF0100"></rect><g style="opacity:0.4"><polygon points="281.43 416.22 300.13 382.56 315.43 404.07 324.72 392.65 338.55 416.22 281.43 416.22"></polygon></g><g style="opacity:0.4"><path d="M321.94,376a4.87,4.87,0,1,1-4.86-4.86A4.86,4.86,0,0,1,321.94,376Z"></path></g><g style="opacity:0.4"><path d="M338.55,416.4s0-.09,0-.27,0-.44,0-.76q0-1,0-2.94c0-2.6,0-6.35-.07-11.11,0-9.56-.08-23.16-.14-39.5l.27.28-57.12,0,.32-.32v14.69c0,4.8,0,9.51,0,14.09,0,9.16,0,17.82,0,25.79l-.28-.28,41.3.14,11.65.08,3.09,0h.8l.28,0a1,1,0,0,1-.25,0h-.77l-3,0-11.59.07-41.48.14h-.28v-.28c0-8,0-16.63,0-25.79,0-4.58,0-9.29,0-14.09V361.83l.32-.33,57.12.05h.28v.27c-.06,16.41-.11,30.08-.14,39.67,0,4.74-.06,8.47-.07,11.05,0,1.24,0,2.21,0,2.89,0,.31,0,.55,0,.73S338.56,416.41,338.55,416.4Z"></path></g><path d="M194.84,131.93v15.8h-1.38l-10.15-12.82v12.82h-1.67v-15.8H183l10.18,12.82V131.93Z" style="fill:#263238"></path><path d="M211.16,146.28v1.45H200v-15.8h10.83v1.44h-9.16V139h8.17v1.43h-8.17v5.86Z" style="fill:#263238"></path><path d="M236.55,131.93l-5.33,15.8h-1.76l-4.62-13.48-4.65,13.48h-1.74l-5.33-15.8h1.72l4.56,13.59,4.71-13.59h1.56l4.65,13.65L235,131.93Z" style="fill:#263238"></path><path d="M238.09,145.81l.65-1.29a7.74,7.74,0,0,0,5.21,1.92c3,0,4.25-1.24,4.25-2.8,0-4.33-9.73-1.67-9.73-7.51,0-2.33,1.8-4.34,5.82-4.34a8.9,8.9,0,0,1,4.9,1.4l-.56,1.34a8.08,8.08,0,0,0-4.34-1.31c-2.89,0-4.17,1.28-4.17,2.86,0,4.34,9.72,1.72,9.72,7.47,0,2.33-1.85,4.31-5.89,4.31A8.53,8.53,0,0,1,238.09,145.81Z" style="fill:#263238"></path><path d="M265.85,137.35c0,3.36-2.44,5.39-6.46,5.39h-4.24v5h-1.67v-15.8h5.91C263.41,131.93,265.85,134,265.85,137.35Zm-1.67,0c0-2.53-1.67-4-4.83-4h-4.2v7.9h4.2C262.51,141.27,264.18,139.83,264.18,137.35Z" style="fill:#263238"></path><path d="M278.57,143.51h-8.8l-1.89,4.22h-1.74l7.22-15.8H275l7.22,15.8h-1.76Zm-.6-1.36-3.8-8.48-3.79,8.48Z" style="fill:#263238"></path><path d="M297.22,137.35c0,3.36-2.44,5.39-6.46,5.39h-4.24v5h-1.67v-15.8h5.91C294.78,131.93,297.22,134,297.22,137.35Zm-1.67,0c0-2.53-1.67-4-4.83-4h-4.2v7.9h4.2C293.88,141.27,295.55,139.83,295.55,137.35Z" style="fill:#263238"></path><path d="M312,146.28v1.45H300.83v-15.8h10.83v1.44H302.5V139h8.17v1.43H302.5v5.86Z" style="fill:#263238"></path><path d="M326.72,147.73l-3.61-5.08c-.41,0-.82.07-1.27.07H317.6v5h-1.67v-15.8h5.91c4,0,6.46,2,6.46,5.42a4.89,4.89,0,0,1-3.61,5l3.86,5.42Zm-.09-10.38c0-2.53-1.67-4-4.83-4h-4.2v7.93h4.2C325,141.3,326.63,139.83,326.63,137.35Z" style="fill:#263238"></path><path d="M361.55,155.3l-.55,0-1.6,0-6.17.13-22.7.38-74.88,1.05-74.9.9-22.7.21-6.17,0h-1.6l-.55,0,.55,0,1.6,0,6.17-.13,22.69-.38,74.9-1.05,74.89-.9,22.69-.21,6.18,0H361C361.36,155.28,361.55,155.3,361.55,155.3Z" style="fill:#263238"></path><path d="M356.73,120.91s-.18,0-.54,0l-1.61,0-6.17.13-22.7.38-74.88,1-74.9.9-22.69.21-6.17,0h-1.61c-.36,0-.55,0-.55,0l.55,0,1.6,0,6.17-.13,22.7-.38,74.89-1,74.89-.9,22.7-.21,6.17,0h1.6C356.55,120.89,356.73,120.91,356.73,120.91Z" style="fill:#263238"></path><path d="M352.07,182.87c0,.14-18.23.26-40.71.26s-40.72-.12-40.72-.26,18.22-.26,40.72-.26S352.07,182.73,352.07,182.87Z" style="fill:#263238"></path><path d="M352.07,195.91c0,.14-18.23.26-40.71.26s-40.72-.12-40.72-.26,18.22-.26,40.72-.26S352.07,195.76,352.07,195.91Z" style="fill:#263238"></path><path d="M352.07,209c0,.14-18.23.26-40.71.26s-40.72-.12-40.72-.26,18.22-.26,40.72-.26S352.07,208.8,352.07,209Z" style="fill:#263238"></path><path d="M352.07,222c0,.15-18.23.26-40.71.26s-40.72-.11-40.72-.26,18.22-.26,40.72-.26S352.07,221.84,352.07,222Z" style="fill:#263238"></path><path d="M352.07,235c0,.15-18.23.26-40.71.26s-40.72-.11-40.72-.26,18.22-.26,40.72-.26S352.07,234.88,352.07,235Z" style="fill:#263238"></path><path d="M245.53,345.7c0,.14-18.23.26-40.71.26s-40.72-.12-40.72-.26,18.22-.26,40.72-.26S245.53,345.56,245.53,345.7Z" style="fill:#263238"></path><path d="M245.53,361.5c0,.14-18.23.26-40.71.26s-40.72-.12-40.72-.26,18.22-.26,40.72-.26S245.53,361.35,245.53,361.5Z" style="fill:#263238"></path><path d="M245.53,377.29c0,.15-18.23.26-40.71.26s-40.72-.11-40.72-.26,18.22-.26,40.72-.26S245.53,377.15,245.53,377.29Z" style="fill:#263238"></path><path d="M245.53,393.09c0,.14-18.23.26-40.71.26s-40.72-.12-40.72-.26,18.22-.26,40.72-.26S245.53,392.94,245.53,393.09Z" style="fill:#263238"></path><path d="M212.43,410.08c0,.14-10.82.26-24.17.26s-24.16-.12-24.16-.26,10.81-.26,24.16-.26S212.43,409.93,212.43,410.08Z" style="fill:#263238"></path><path d="M314.4,248.06a10.23,10.23,0,0,1-1.72.1l-4.69.08c-4,0-9.43.08-15.47.08s-11.52,0-15.48-.08l-4.69-.08a10.16,10.16,0,0,1-1.71-.1,10.16,10.16,0,0,1,1.71-.1l4.69-.08c4,0,9.44-.08,15.48-.08s11.51,0,15.47.08l4.69.08A10.23,10.23,0,0,1,314.4,248.06Z" style="fill:#263238"></path><path d="M356,330c0,.14-43.65.26-97.48.26S161,330.09,161,330s43.64-.26,97.48-.26S356,329.81,356,330Z" style="fill:#263238"></path><path d="M356,312.74c0,.14-43.65.26-97.48.26s-97.48-.12-97.48-.26,43.64-.26,97.48-.26S356,312.59,356,312.74Z" style="fill:#263238"></path><path d="M356,298.17c0,.14-43.65.26-97.48.26s-97.48-.12-97.48-.26,43.64-.26,97.48-.26S356,298,356,298.17Z" style="fill:#263238"></path><path d="M252.12,286.84c0,.14-21.18.26-47.3.26s-47.31-.12-47.31-.26,21.18-.26,47.31-.26S252.12,286.69,252.12,286.84Z" style="fill:#FF0100"></path></g></svg>